<?xml version="1.0" encoding="utf-8"?>
<!-- Generator: Adobe Illustrator 26.3.1, SVG Export Plug-In . SVG Version: 6.00 Build 0)  -->
<svg version="1.1" id="Livello_1" xmlns="http://www.w3.org/2000/svg" xmlns:xlink="http://www.w3.org/1999/xlink" x="0px" y="0px"
	 viewBox="0 0 100 100" style="enable-background:new 0 0 100 100;" xml:space="preserve">
<style type="text/css">
	.st0{fill:#FFFFFF;}
</style>
<path class="st0" d="M20.6,25.8h58.5v39h9.8V23.3c0-4-3.3-7.3-7.3-7.3H18.1c-4,0-7.3,3.3-7.3,7.3v41.4h9.8V25.8z M96.1,69.6H3.5
	c-1.3,0-2.4,1.1-2.4,2.4v2.4c0,5.4,4.4,9.8,9.8,9.8h78c5.4,0,9.8-4.4,9.8-9.8V72C98.6,70.7,97.5,69.6,96.1,69.6z M56.8,54.7
	c0.6,0.6,1.4,0.9,2.1,0.9s1.6-0.3,2.2-0.9l7.3-7.3c1.2-1.2,1.2-3.1,0-4.3l-7.3-7.3c-1.2-1.2-3.1-1.2-4.3,0s-1.2,3.1,0,4.3l5.2,5.2
	l-5.2,5.2C55.6,51.6,55.6,53.5,56.8,54.7z M42.8,35.8c-1.2-1.2-3.1-1.2-4.3,0l-7.3,7.3c-1.2,1.2-1.2,3.1,0,4.3l7.3,7.3
	c0.6,0.6,1.4,0.9,2.2,0.9s1.6-0.3,2.2-0.9c1.2-1.2,1.2-3.1,0-4.3l-5.2-5.2l5.2-5.2C43.9,38.9,43.9,37,42.8,35.8z"/>
</svg>
