<?xml version="1.0" encoding="utf-8"?>
<!-- Generator: Adobe Illustrator 26.3.1, SVG Export Plug-In . SVG Version: 6.00 Build 0)  -->
<svg version="1.1" id="Livello_1" xmlns="http://www.w3.org/2000/svg" xmlns:xlink="http://www.w3.org/1999/xlink" x="0px" y="0px"
	 viewBox="0 0 100 100" style="enable-background:new 0 0 100 100;" xml:space="preserve">
<style type="text/css">
	.st0{fill:#FFFFFF;}
</style>
<path class="st0" d="M79,16H19.5c-2,0-3.6,1.6-3.6,3.6l0,35.3c0,8.1,6.5,14.6,14.6,14.6h29.2c8.1,0,14.6-6.5,14.6-14.6H79
	c10.7,0,19.5-8.7,19.5-19.5S89.7,16,79,16z M79,45.2h-4.9V25.7H79c5.4,0,9.7,4.4,9.7,9.7S84.4,45.2,79,45.2z M86.3,74.4H3.6
	c-1.3,0-2.4,1.1-2.4,2.4c0,4,3.3,7.3,7.3,7.3h72.9c4,0,7.3-3.3,7.3-7.3C88.7,75.5,87.6,74.4,86.3,74.4z"/>
</svg>
